<mxfile host="Electron" agent="Mozilla/5.0 (Macintosh; Intel Mac OS X 10_15_7) AppleWebKit/537.36 (KHTML, like Gecko) draw.io/24.7.5 Chrome/126.0.6478.183 Electron/31.3.0 Safari/537.36" version="24.7.5">
  <diagram id="P3egCbBItE-vjyixLVVF" name="Page-1">
    <mxGraphModel dx="2294" dy="824" grid="1" gridSize="10" guides="1" tooltips="1" connect="1" arrows="1" fold="1" page="1" pageScale="1" pageWidth="1100" pageHeight="850" math="0" shadow="0">
      <root>
        <mxCell id="0" />
        <mxCell id="1" parent="0" />
        <mxCell id="BlkbCB-FxylbQSZlHxT3-26" value="&lt;i style=&quot;&quot;&gt;&lt;u style=&quot;&quot;&gt;Distributed Design of Experiments&lt;/u&gt;&lt;/i&gt;" style="rounded=0;whiteSpace=wrap;html=1;dashed=1;fillColor=none;verticalAlign=top;strokeWidth=2;" parent="1" vertex="1">
          <mxGeometry x="-100" y="90" width="1010" height="560" as="geometry" />
        </mxCell>
        <mxCell id="BlkbCB-FxylbQSZlHxT3-25" value="&lt;i style=&quot;&quot;&gt;&lt;u&gt;Distributed Experiment Steering&lt;/u&gt;&lt;/i&gt;" style="rounded=0;whiteSpace=wrap;html=1;dashed=1;fillColor=none;verticalAlign=top;strokeWidth=2;" parent="1" vertex="1">
          <mxGeometry x="166" y="120" width="714" height="410" as="geometry" />
        </mxCell>
        <mxCell id="ZZdG2KbTojn6cw3QZEdF-10" value="&lt;i&gt;&lt;b&gt;Orient&lt;/b&gt;&lt;/i&gt;" style="rounded=0;whiteSpace=wrap;html=1;dashed=1;fillColor=none;verticalAlign=bottom;" parent="1" vertex="1">
          <mxGeometry x="180" y="420" width="240" height="90" as="geometry" />
        </mxCell>
        <mxCell id="ZZdG2KbTojn6cw3QZEdF-11" value="&lt;b&gt;&lt;i&gt;Decide&lt;/i&gt;&lt;/b&gt;" style="rounded=0;whiteSpace=wrap;html=1;dashed=1;fillColor=none;verticalAlign=top;" parent="1" vertex="1">
          <mxGeometry x="300" y="130" width="120" height="210" as="geometry" />
        </mxCell>
        <mxCell id="ZZdG2KbTojn6cw3QZEdF-12" value="&lt;b&gt;&lt;i&gt;Act&lt;/i&gt;&lt;/b&gt;" style="rounded=0;whiteSpace=wrap;html=1;dashed=1;fillColor=none;verticalAlign=top;" parent="1" vertex="1">
          <mxGeometry x="450" y="250" width="120" height="90" as="geometry" />
        </mxCell>
        <mxCell id="ZZdG2KbTojn6cw3QZEdF-9" value="&lt;i&gt;&lt;b&gt;Observe&lt;/b&gt;&lt;/i&gt;" style="rounded=0;whiteSpace=wrap;html=1;dashed=1;fillColor=none;verticalAlign=bottom;" parent="1" vertex="1">
          <mxGeometry x="505" y="420" width="240" height="90" as="geometry" />
        </mxCell>
        <mxCell id="8yW3HtKEOS8D6HbiddwS-1" value="Experiment&lt;br&gt;Plan" style="sketch=0;pointerEvents=1;shadow=0;dashed=0;html=1;strokeColor=none;fillColor=#505050;labelPosition=center;verticalLabelPosition=bottom;verticalAlign=top;outlineConnect=0;align=center;shape=mxgraph.office.concepts.document;" parent="1" vertex="1">
          <mxGeometry x="210" y="280" width="30" height="40" as="geometry" />
        </mxCell>
        <mxCell id="8yW3HtKEOS8D6HbiddwS-2" value="Controller" style="rounded=1;whiteSpace=wrap;html=1;fillColor=#fff2cc;gradientColor=#ffd966;strokeColor=#d6b656;" parent="1" vertex="1">
          <mxGeometry x="320" y="280" width="80" height="40" as="geometry" />
        </mxCell>
        <mxCell id="8yW3HtKEOS8D6HbiddwS-9" value="" style="endArrow=classic;html=1;rounded=0;exitX=1;exitY=0.5;exitDx=0;exitDy=0;entryX=0;entryY=0.5;entryDx=0;entryDy=0;" parent="1" source="8yW3HtKEOS8D6HbiddwS-2" target="ZZdG2KbTojn6cw3QZEdF-2" edge="1">
          <mxGeometry width="50" height="50" relative="1" as="geometry">
            <mxPoint x="380" y="510" as="sourcePoint" />
            <mxPoint x="390" y="330" as="targetPoint" />
          </mxGeometry>
        </mxCell>
        <mxCell id="8yW3HtKEOS8D6HbiddwS-4" value="3D Metal Printing" style="ellipse;shape=cloud;whiteSpace=wrap;html=1;fillColor=#d5e8d4;gradientColor=#97d077;strokeColor=#82b366;" parent="1" vertex="1">
          <mxGeometry x="470" y="360" width="80" height="40" as="geometry" />
        </mxCell>
        <mxCell id="ZZdG2KbTojn6cw3QZEdF-1" value="Thermocouple&lt;br&gt;&amp;amp; IR Sensors" style="rounded=1;whiteSpace=wrap;html=1;fillColor=#fff2cc;gradientColor=#ffd966;strokeColor=#d6b656;" parent="1" vertex="1">
          <mxGeometry x="525" y="440" width="80" height="40" as="geometry" />
        </mxCell>
        <mxCell id="ZZdG2KbTojn6cw3QZEdF-2" value="Actuators" style="rounded=1;whiteSpace=wrap;html=1;fillColor=#fff2cc;gradientColor=#ffd966;strokeColor=#d6b656;" parent="1" vertex="1">
          <mxGeometry x="470" y="280" width="80" height="40" as="geometry" />
        </mxCell>
        <mxCell id="ZZdG2KbTojn6cw3QZEdF-3" value="" style="endArrow=classic;html=1;rounded=0;exitX=0.5;exitY=1;exitDx=0;exitDy=0;entryX=0.5;entryY=0;entryDx=0;entryDy=0;" parent="1" source="ZZdG2KbTojn6cw3QZEdF-2" target="8yW3HtKEOS8D6HbiddwS-4" edge="1">
          <mxGeometry width="50" height="50" relative="1" as="geometry">
            <mxPoint x="390" y="560" as="sourcePoint" />
            <mxPoint x="640" y="350" as="targetPoint" />
          </mxGeometry>
        </mxCell>
        <mxCell id="ZZdG2KbTojn6cw3QZEdF-5" value="Remote&lt;br&gt;Analyser" style="rounded=1;whiteSpace=wrap;html=1;fillColor=#fff2cc;gradientColor=#ffd966;strokeColor=#d6b656;" parent="1" vertex="1">
          <mxGeometry x="320" y="440" width="80" height="40" as="geometry" />
        </mxCell>
        <mxCell id="ZZdG2KbTojn6cw3QZEdF-6" value="" style="endArrow=classic;html=1;rounded=0;exitX=0;exitY=0.25;exitDx=0;exitDy=0;entryX=1;entryY=0.25;entryDx=0;entryDy=0;" parent="1" source="ZZdG2KbTojn6cw3QZEdF-1" target="ZZdG2KbTojn6cw3QZEdF-5" edge="1">
          <mxGeometry width="50" height="50" relative="1" as="geometry">
            <mxPoint x="400" y="570" as="sourcePoint" />
            <mxPoint x="450" y="520" as="targetPoint" />
          </mxGeometry>
        </mxCell>
        <mxCell id="ZZdG2KbTojn6cw3QZEdF-7" value="" style="endArrow=classic;html=1;rounded=0;exitX=0.5;exitY=0;exitDx=0;exitDy=0;entryX=0.5;entryY=1;entryDx=0;entryDy=0;" parent="1" source="ZZdG2KbTojn6cw3QZEdF-5" target="8yW3HtKEOS8D6HbiddwS-2" edge="1">
          <mxGeometry width="50" height="50" relative="1" as="geometry">
            <mxPoint x="400" y="570" as="sourcePoint" />
            <mxPoint x="450" y="520" as="targetPoint" />
          </mxGeometry>
        </mxCell>
        <mxCell id="ivcJ0Vw7QY5pCtP25yYA-1" value="&lt;br&gt;Local&lt;br&gt;Storage" style="strokeWidth=1;html=1;shape=mxgraph.flowchart.database;whiteSpace=wrap;labelBackgroundColor=none;fillColor=#fff2cc;gradientColor=#ffd966;strokeColor=#d6b656;" parent="1" vertex="1">
          <mxGeometry x="665" y="430" width="60" height="60" as="geometry" />
        </mxCell>
        <mxCell id="ivcJ0Vw7QY5pCtP25yYA-2" value="" style="shape=flexArrow;endArrow=classic;html=1;rounded=0;exitX=1;exitY=0.5;exitDx=0;exitDy=0;endSize=5;startSize=5;startArrow=block;" parent="1" source="ZZdG2KbTojn6cw3QZEdF-1" target="ivcJ0Vw7QY5pCtP25yYA-1" edge="1">
          <mxGeometry width="50" height="50" relative="1" as="geometry">
            <mxPoint x="385" y="550" as="sourcePoint" />
            <mxPoint x="665" y="510" as="targetPoint" />
          </mxGeometry>
        </mxCell>
        <mxCell id="ivcJ0Vw7QY5pCtP25yYA-3" value="" style="shape=flexArrow;endArrow=classic;html=1;rounded=0;entryX=1;entryY=0.5;entryDx=0;entryDy=0;startArrow=block;startSize=5;endSize=5;entryPerimeter=0;" parent="1" source="ZZdG2KbTojn6cw3QZEdF-5" target="ivcJ0Vw7QY5pCtP25yYA-14" edge="1">
          <mxGeometry width="50" height="50" relative="1" as="geometry">
            <mxPoint x="480" y="430" as="sourcePoint" />
            <mxPoint x="550" y="430" as="targetPoint" />
          </mxGeometry>
        </mxCell>
        <mxCell id="ivcJ0Vw7QY5pCtP25yYA-6" value="" style="shape=flexArrow;endArrow=classic;html=1;rounded=0;entryX=0.5;entryY=0;entryDx=0;entryDy=0;endSize=5;startSize=5;" parent="1" target="ZZdG2KbTojn6cw3QZEdF-1" edge="1">
          <mxGeometry width="50" height="50" relative="1" as="geometry">
            <mxPoint x="530" y="400" as="sourcePoint" />
            <mxPoint x="480" y="411" as="targetPoint" />
          </mxGeometry>
        </mxCell>
        <mxCell id="ivcJ0Vw7QY5pCtP25yYA-10" value="" style="shape=flexArrow;endArrow=classic;html=1;rounded=0;endSize=5;startSize=5;entryX=0;entryY=0.5;entryDx=0;entryDy=0;" parent="1" target="8yW3HtKEOS8D6HbiddwS-2" edge="1">
          <mxGeometry width="50" height="50" relative="1" as="geometry">
            <mxPoint x="250" y="300" as="sourcePoint" />
            <mxPoint x="700" y="400" as="targetPoint" />
          </mxGeometry>
        </mxCell>
        <mxCell id="ivcJ0Vw7QY5pCtP25yYA-14" value="&lt;br&gt;Local&lt;br&gt;Storage" style="strokeWidth=1;html=1;shape=mxgraph.flowchart.database;whiteSpace=wrap;labelBackgroundColor=none;fillColor=#fff2cc;gradientColor=#ffd966;strokeColor=#d6b656;" parent="1" vertex="1">
          <mxGeometry x="200" y="430" width="60" height="60" as="geometry" />
        </mxCell>
        <mxCell id="ivcJ0Vw7QY5pCtP25yYA-18" value="&lt;br&gt;Local&lt;br&gt;Storage" style="strokeWidth=1;html=1;shape=mxgraph.flowchart.database;whiteSpace=wrap;labelBackgroundColor=none;fillColor=#fff2cc;gradientColor=#ffd966;strokeColor=#d6b656;" parent="1" vertex="1">
          <mxGeometry x="330" y="160" width="60" height="60" as="geometry" />
        </mxCell>
        <mxCell id="ivcJ0Vw7QY5pCtP25yYA-19" value="" style="shape=flexArrow;endArrow=classic;html=1;rounded=0;startArrow=block;startSize=5;endSize=5;" parent="1" source="ivcJ0Vw7QY5pCtP25yYA-18" target="8yW3HtKEOS8D6HbiddwS-2" edge="1">
          <mxGeometry width="50" height="50" relative="1" as="geometry">
            <mxPoint x="370" y="490" as="sourcePoint" />
            <mxPoint x="370" y="530" as="targetPoint" />
          </mxGeometry>
        </mxCell>
        <mxCell id="ivcJ0Vw7QY5pCtP25yYA-20" value="" style="shape=flexArrow;endArrow=classic;html=1;rounded=0;endSize=5;startSize=5;entryX=1;entryY=0.75;entryDx=0;entryDy=0;exitX=0;exitY=0.75;exitDx=0;exitDy=0;" parent="1" source="ZZdG2KbTojn6cw3QZEdF-1" target="ZZdG2KbTojn6cw3QZEdF-5" edge="1">
          <mxGeometry width="50" height="50" relative="1" as="geometry">
            <mxPoint x="600" y="570" as="sourcePoint" />
            <mxPoint x="380" y="610" as="targetPoint" />
          </mxGeometry>
        </mxCell>
        <mxCell id="ivcJ0Vw7QY5pCtP25yYA-21" value="" style="shape=flexArrow;endArrow=classic;html=1;rounded=0;endSize=5;startSize=5;entryX=0.75;entryY=1;entryDx=0;entryDy=0;exitX=0.75;exitY=0;exitDx=0;exitDy=0;" parent="1" source="ZZdG2KbTojn6cw3QZEdF-5" target="8yW3HtKEOS8D6HbiddwS-2" edge="1">
          <mxGeometry width="50" height="50" relative="1" as="geometry">
            <mxPoint x="550" y="490" as="sourcePoint" />
            <mxPoint x="410" y="490" as="targetPoint" />
          </mxGeometry>
        </mxCell>
        <mxCell id="53u_tNHBsubDG4iRoRXi-1" value="Raw Experiment&lt;br&gt;Result" style="sketch=0;pointerEvents=1;shadow=0;dashed=0;html=1;strokeColor=none;fillColor=#505050;labelPosition=center;verticalLabelPosition=bottom;verticalAlign=top;outlineConnect=0;align=center;shape=mxgraph.office.concepts.document;" parent="1" vertex="1">
          <mxGeometry x="805" y="440" width="30" height="40" as="geometry" />
        </mxCell>
        <mxCell id="53u_tNHBsubDG4iRoRXi-2" value="" style="shape=flexArrow;endArrow=classic;html=1;rounded=0;endSize=5;startSize=5;exitX=1;exitY=0.5;exitDx=0;exitDy=0;exitPerimeter=0;" parent="1" source="ivcJ0Vw7QY5pCtP25yYA-1" edge="1">
          <mxGeometry width="50" height="50" relative="1" as="geometry">
            <mxPoint x="825" y="310" as="sourcePoint" />
            <mxPoint x="795" y="460" as="targetPoint" />
          </mxGeometry>
        </mxCell>
        <mxCell id="FbyAllKG4PkfHrCSDohA-5" value="&amp;nbsp;Control&amp;nbsp;" style="endArrow=classic;html=1;rounded=0;entryX=0;entryY=0.5;entryDx=0;entryDy=0;" parent="1" edge="1">
          <mxGeometry width="50" height="50" relative="1" as="geometry">
            <mxPoint x="793" y="140" as="sourcePoint" />
            <mxPoint x="863" y="140" as="targetPoint" />
          </mxGeometry>
        </mxCell>
        <mxCell id="FbyAllKG4PkfHrCSDohA-6" value="&amp;nbsp;Data&amp;nbsp;" style="shape=flexArrow;endArrow=classic;html=1;rounded=0;endSize=5;startSize=5;" parent="1" edge="1">
          <mxGeometry width="50" height="50" relative="1" as="geometry">
            <mxPoint x="793" y="170" as="sourcePoint" />
            <mxPoint x="863" y="170" as="targetPoint" />
          </mxGeometry>
        </mxCell>
        <mxCell id="BlkbCB-FxylbQSZlHxT3-2" value="&lt;i&gt;&lt;b&gt;Orient&lt;/b&gt;&lt;/i&gt;" style="rounded=0;whiteSpace=wrap;html=1;dashed=1;fillColor=none;verticalAlign=bottom;" parent="1" vertex="1">
          <mxGeometry x="-90" y="420" width="240" height="90" as="geometry" />
        </mxCell>
        <mxCell id="BlkbCB-FxylbQSZlHxT3-3" value="&lt;b&gt;&lt;i&gt;Decide&lt;/i&gt;&lt;/b&gt;" style="rounded=0;whiteSpace=wrap;html=1;dashed=1;fillColor=none;verticalAlign=top;" parent="1" vertex="1">
          <mxGeometry x="30" y="130" width="120" height="210" as="geometry" />
        </mxCell>
        <mxCell id="BlkbCB-FxylbQSZlHxT3-4" value="Experiment&lt;br&gt;Design Plan" style="sketch=0;pointerEvents=1;shadow=0;dashed=0;html=1;strokeColor=none;fillColor=#505050;labelPosition=center;verticalLabelPosition=bottom;verticalAlign=top;outlineConnect=0;align=center;shape=mxgraph.office.concepts.document;" parent="1" vertex="1">
          <mxGeometry x="-60" y="280" width="30" height="40" as="geometry" />
        </mxCell>
        <mxCell id="BlkbCB-FxylbQSZlHxT3-5" value="Remote&lt;br&gt;Planner" style="rounded=1;whiteSpace=wrap;html=1;fillColor=#ffcd28;gradientColor=#ffa500;strokeColor=#d79b00;" parent="1" vertex="1">
          <mxGeometry x="50" y="280" width="80" height="40" as="geometry" />
        </mxCell>
        <mxCell id="BlkbCB-FxylbQSZlHxT3-6" value="Remote&lt;br&gt;Analyser" style="rounded=1;whiteSpace=wrap;html=1;fillColor=#ffcd28;gradientColor=#ffa500;strokeColor=#d79b00;" parent="1" vertex="1">
          <mxGeometry x="50" y="440" width="80" height="40" as="geometry" />
        </mxCell>
        <mxCell id="BlkbCB-FxylbQSZlHxT3-7" value="" style="endArrow=classic;html=1;rounded=0;exitX=0.5;exitY=0;exitDx=0;exitDy=0;entryX=0.5;entryY=1;entryDx=0;entryDy=0;" parent="1" source="BlkbCB-FxylbQSZlHxT3-6" target="BlkbCB-FxylbQSZlHxT3-5" edge="1">
          <mxGeometry width="50" height="50" relative="1" as="geometry">
            <mxPoint x="130" y="570" as="sourcePoint" />
            <mxPoint x="180" y="520" as="targetPoint" />
          </mxGeometry>
        </mxCell>
        <mxCell id="BlkbCB-FxylbQSZlHxT3-8" value="" style="shape=flexArrow;endArrow=classic;html=1;rounded=0;entryX=1;entryY=0.5;entryDx=0;entryDy=0;startArrow=block;startSize=5;endSize=5;entryPerimeter=0;" parent="1" source="BlkbCB-FxylbQSZlHxT3-6" target="BlkbCB-FxylbQSZlHxT3-10" edge="1">
          <mxGeometry width="50" height="50" relative="1" as="geometry">
            <mxPoint x="210" y="430" as="sourcePoint" />
            <mxPoint x="280" y="430" as="targetPoint" />
          </mxGeometry>
        </mxCell>
        <mxCell id="BlkbCB-FxylbQSZlHxT3-9" value="" style="shape=flexArrow;endArrow=classic;html=1;rounded=0;endSize=5;startSize=5;entryX=0;entryY=0.5;entryDx=0;entryDy=0;" parent="1" target="BlkbCB-FxylbQSZlHxT3-5" edge="1">
          <mxGeometry width="50" height="50" relative="1" as="geometry">
            <mxPoint x="-20" y="300" as="sourcePoint" />
            <mxPoint x="430" y="400" as="targetPoint" />
          </mxGeometry>
        </mxCell>
        <mxCell id="BlkbCB-FxylbQSZlHxT3-10" value="&lt;br&gt;Local&lt;br&gt;Storage" style="strokeWidth=1;html=1;shape=mxgraph.flowchart.database;whiteSpace=wrap;labelBackgroundColor=none;fillColor=#ffcd28;gradientColor=#ffa500;strokeColor=#d79b00;" parent="1" vertex="1">
          <mxGeometry x="-70" y="430" width="60" height="60" as="geometry" />
        </mxCell>
        <mxCell id="BlkbCB-FxylbQSZlHxT3-11" value="&lt;br&gt;Local&lt;br&gt;Storage" style="strokeWidth=1;html=1;shape=mxgraph.flowchart.database;whiteSpace=wrap;labelBackgroundColor=none;fillColor=#ffcd28;gradientColor=#ffa500;strokeColor=#d79b00;" parent="1" vertex="1">
          <mxGeometry x="60" y="160" width="60" height="60" as="geometry" />
        </mxCell>
        <mxCell id="BlkbCB-FxylbQSZlHxT3-12" value="" style="shape=flexArrow;endArrow=classic;html=1;rounded=0;startArrow=block;startSize=5;endSize=5;" parent="1" source="BlkbCB-FxylbQSZlHxT3-11" target="BlkbCB-FxylbQSZlHxT3-5" edge="1">
          <mxGeometry width="50" height="50" relative="1" as="geometry">
            <mxPoint x="100" y="490" as="sourcePoint" />
            <mxPoint x="100" y="530" as="targetPoint" />
          </mxGeometry>
        </mxCell>
        <mxCell id="BlkbCB-FxylbQSZlHxT3-13" value="" style="shape=flexArrow;endArrow=classic;html=1;rounded=0;endSize=5;startSize=5;entryX=0.75;entryY=1;entryDx=0;entryDy=0;exitX=0.75;exitY=0;exitDx=0;exitDy=0;" parent="1" source="BlkbCB-FxylbQSZlHxT3-6" target="BlkbCB-FxylbQSZlHxT3-5" edge="1">
          <mxGeometry width="50" height="50" relative="1" as="geometry">
            <mxPoint x="280" y="490" as="sourcePoint" />
            <mxPoint x="140" y="490" as="targetPoint" />
          </mxGeometry>
        </mxCell>
        <mxCell id="BlkbCB-FxylbQSZlHxT3-14" value="" style="shape=flexArrow;endArrow=classic;html=1;rounded=0;endSize=5;startSize=5;entryX=0;entryY=0.5;entryDx=0;entryDy=0;" parent="1" edge="1">
          <mxGeometry width="50" height="50" relative="1" as="geometry">
            <mxPoint x="130" y="299.5" as="sourcePoint" />
            <mxPoint x="200" y="299.5" as="targetPoint" />
          </mxGeometry>
        </mxCell>
        <mxCell id="BlkbCB-FxylbQSZlHxT3-16" value="&lt;i&gt;&lt;b&gt;Observe&lt;/b&gt;&lt;/i&gt;" style="rounded=0;whiteSpace=wrap;html=1;dashed=1;fillColor=none;verticalAlign=bottom;" parent="1" vertex="1">
          <mxGeometry x="345" y="540" width="240" height="90" as="geometry" />
        </mxCell>
        <mxCell id="BlkbCB-FxylbQSZlHxT3-17" value="Neutron Diffraction&lt;br&gt;Sensors" style="rounded=1;whiteSpace=wrap;html=1;fillColor=#fff2cc;gradientColor=#ffd966;strokeColor=#d6b656;" parent="1" vertex="1">
          <mxGeometry x="365" y="560" width="80" height="40" as="geometry" />
        </mxCell>
        <mxCell id="BlkbCB-FxylbQSZlHxT3-18" value="&lt;br&gt;Local&lt;br&gt;Storage" style="strokeWidth=1;html=1;shape=mxgraph.flowchart.database;whiteSpace=wrap;labelBackgroundColor=none;fillColor=#fff2cc;gradientColor=#ffd966;strokeColor=#d6b656;" parent="1" vertex="1">
          <mxGeometry x="505" y="550" width="60" height="60" as="geometry" />
        </mxCell>
        <mxCell id="BlkbCB-FxylbQSZlHxT3-19" value="" style="shape=flexArrow;endArrow=classic;html=1;rounded=0;exitX=1;exitY=0.5;exitDx=0;exitDy=0;endSize=5;startSize=5;startArrow=block;" parent="1" source="BlkbCB-FxylbQSZlHxT3-17" target="BlkbCB-FxylbQSZlHxT3-18" edge="1">
          <mxGeometry width="50" height="50" relative="1" as="geometry">
            <mxPoint x="225" y="670" as="sourcePoint" />
            <mxPoint x="505" y="630" as="targetPoint" />
          </mxGeometry>
        </mxCell>
        <mxCell id="BlkbCB-FxylbQSZlHxT3-20" value="Raw Experiment&lt;br&gt;Result" style="sketch=0;pointerEvents=1;shadow=0;dashed=0;html=1;strokeColor=none;fillColor=#505050;labelPosition=center;verticalLabelPosition=bottom;verticalAlign=top;outlineConnect=0;align=center;shape=mxgraph.office.concepts.document;" parent="1" vertex="1">
          <mxGeometry x="645" y="560" width="30" height="40" as="geometry" />
        </mxCell>
        <mxCell id="BlkbCB-FxylbQSZlHxT3-21" value="" style="shape=flexArrow;endArrow=classic;html=1;rounded=0;endSize=5;startSize=5;exitX=1;exitY=0.5;exitDx=0;exitDy=0;exitPerimeter=0;" parent="1" source="BlkbCB-FxylbQSZlHxT3-18" edge="1">
          <mxGeometry width="50" height="50" relative="1" as="geometry">
            <mxPoint x="665" y="430" as="sourcePoint" />
            <mxPoint x="635" y="580" as="targetPoint" />
          </mxGeometry>
        </mxCell>
        <mxCell id="BlkbCB-FxylbQSZlHxT3-22" value="" style="shape=flexArrow;endArrow=classic;html=1;rounded=0;endSize=5;startSize=5;entryX=0.5;entryY=0;entryDx=0;entryDy=0;" parent="1" source="8yW3HtKEOS8D6HbiddwS-4" target="BlkbCB-FxylbQSZlHxT3-17" edge="1">
          <mxGeometry width="50" height="50" relative="1" as="geometry">
            <mxPoint x="524" y="408" as="sourcePoint" />
            <mxPoint x="440" y="530" as="targetPoint" />
          </mxGeometry>
        </mxCell>
        <mxCell id="BlkbCB-FxylbQSZlHxT3-23" value="" style="shape=flexArrow;endArrow=classic;html=1;rounded=0;endSize=5;startSize=5;exitX=0;exitY=0.75;exitDx=0;exitDy=0;entryX=0.5;entryY=1;entryDx=0;entryDy=0;" parent="1" source="BlkbCB-FxylbQSZlHxT3-17" target="BlkbCB-FxylbQSZlHxT3-6" edge="1">
          <mxGeometry width="50" height="50" relative="1" as="geometry">
            <mxPoint x="535" y="480" as="sourcePoint" />
            <mxPoint x="-50" y="630" as="targetPoint" />
            <Array as="points">
              <mxPoint x="90" y="590" />
            </Array>
          </mxGeometry>
        </mxCell>
        <mxCell id="BlkbCB-FxylbQSZlHxT3-24" value="" style="endArrow=classic;html=1;rounded=0;exitX=0;exitY=0.25;exitDx=0;exitDy=0;entryX=0.75;entryY=1;entryDx=0;entryDy=0;" parent="1" source="BlkbCB-FxylbQSZlHxT3-17" target="BlkbCB-FxylbQSZlHxT3-6" edge="1">
          <mxGeometry width="50" height="50" relative="1" as="geometry">
            <mxPoint x="535" y="460" as="sourcePoint" />
            <mxPoint x="410" y="460" as="targetPoint" />
            <Array as="points">
              <mxPoint x="110" y="570" />
            </Array>
          </mxGeometry>
        </mxCell>
      </root>
    </mxGraphModel>
  </diagram>
</mxfile>
